<mxfile host="Electron" agent="Mozilla/5.0 (Windows NT 10.0; Win64; x64) AppleWebKit/537.36 (KHTML, like Gecko) draw.io/26.0.9 Chrome/128.0.6613.186 Electron/32.2.5 Safari/537.36" version="26.0.9" pages="3">
  <diagram name="Home Page" id="_uTbSH00oRnvFtWxWrMj">
    <mxGraphModel dx="1290" dy="621" grid="1" gridSize="10" guides="1" tooltips="1" connect="1" arrows="1" fold="1" page="1" pageScale="1" pageWidth="850" pageHeight="1100" math="0" shadow="0">
      <root>
        <mxCell id="0" />
        <mxCell id="1" parent="0" />
        <mxCell id="SslQyfSVk4iUjUdHOp3g-7" value="" style="group" vertex="1" connectable="0" parent="1">
          <mxGeometry x="230" y="80" width="420" height="60" as="geometry" />
        </mxCell>
        <mxCell id="SslQyfSVk4iUjUdHOp3g-6" value="Search" style="rounded=1;whiteSpace=wrap;html=1;" vertex="1" parent="SslQyfSVk4iUjUdHOp3g-7">
          <mxGeometry width="420" height="60" as="geometry" />
        </mxCell>
        <mxCell id="SslQyfSVk4iUjUdHOp3g-5" value="" style="sketch=0;pointerEvents=1;shadow=0;dashed=0;html=1;strokeColor=none;fillColor=#505050;labelPosition=center;verticalLabelPosition=bottom;verticalAlign=top;outlineConnect=0;align=center;shape=mxgraph.office.concepts.search;" vertex="1" parent="SslQyfSVk4iUjUdHOp3g-7">
          <mxGeometry x="360" y="5.5" width="49" height="49" as="geometry" />
        </mxCell>
      </root>
    </mxGraphModel>
  </diagram>
  <diagram id="LULCU5XgrYEh01MsNYGE" name="Select a Device">
    <mxGraphModel dx="2314" dy="1196" grid="1" gridSize="10" guides="1" tooltips="1" connect="1" arrows="1" fold="1" page="1" pageScale="1" pageWidth="850" pageHeight="1100" math="0" shadow="0">
      <root>
        <mxCell id="0" />
        <mxCell id="1" parent="0" />
        <mxCell id="eXTrAX-iwCFZ9xLGLV2M-16" value="" style="rounded=0;whiteSpace=wrap;html=1;" parent="1" vertex="1">
          <mxGeometry x="80" y="20" width="710" height="990" as="geometry" />
        </mxCell>
        <mxCell id="eXTrAX-iwCFZ9xLGLV2M-3" value="" style="rounded=1;whiteSpace=wrap;html=1;" parent="1" vertex="1">
          <mxGeometry x="115" y="60" width="610" height="840" as="geometry" />
        </mxCell>
        <mxCell id="eXTrAX-iwCFZ9xLGLV2M-4" value="Save" style="rounded=1;fillColor=#009900;strokeColor=none;html=1;whiteSpace=wrap;fontColor=#ffffff;align=center;verticalAlign=middle;fontStyle=0;fontSize=12;sketch=0;" parent="1" vertex="1">
          <mxGeometry x="300" y="840" width="86" height="33" as="geometry" />
        </mxCell>
        <mxCell id="eXTrAX-iwCFZ9xLGLV2M-5" value="Cancel" style="rounded=1;fillColor=#FF0000;strokeColor=none;html=1;whiteSpace=wrap;fontColor=#ffffff;align=center;verticalAlign=middle;fontStyle=0;fontSize=12;sketch=0;" parent="1" vertex="1">
          <mxGeometry x="425" y="840" width="86" height="33" as="geometry" />
        </mxCell>
        <mxCell id="eXTrAX-iwCFZ9xLGLV2M-8" value="" style="group" parent="1" vertex="1" connectable="0">
          <mxGeometry x="170" y="130" width="510" height="200" as="geometry" />
        </mxCell>
        <mxCell id="eXTrAX-iwCFZ9xLGLV2M-6" value="&lt;div style=&quot;&quot;&gt;&lt;b style=&quot;background-color: initial;&quot;&gt;&lt;font style=&quot;font-size: 24px;&quot;&gt;Section 1: Device Details&lt;/font&gt;&lt;/b&gt;&lt;/div&gt;&lt;div style=&quot;&quot;&gt;&lt;font style=&quot;font-size: 36px;&quot;&gt;&lt;b&gt;&lt;br&gt;&lt;/b&gt;&lt;/font&gt;&lt;/div&gt;&lt;div style=&quot;&quot;&gt;&lt;font size=&quot;3&quot;&gt;Asset Number&lt;/font&gt;&lt;/div&gt;&lt;div style=&quot;&quot;&gt;&lt;font size=&quot;3&quot;&gt;&lt;br&gt;&lt;/font&gt;&lt;/div&gt;&lt;div style=&quot;&quot;&gt;&lt;font size=&quot;3&quot;&gt;Device Type&lt;/font&gt;&lt;/div&gt;&lt;div style=&quot;&quot;&gt;&lt;font size=&quot;3&quot;&gt;&amp;nbsp;&lt;/font&gt;&lt;/div&gt;" style="shape=document;whiteSpace=wrap;html=1;boundedLbl=1;align=left;" parent="eXTrAX-iwCFZ9xLGLV2M-8" vertex="1">
          <mxGeometry width="510" height="200" as="geometry" />
        </mxCell>
        <mxCell id="eXTrAX-iwCFZ9xLGLV2M-7" value="NB123AFD23" style="rounded=0;whiteSpace=wrap;html=1;" parent="eXTrAX-iwCFZ9xLGLV2M-8" vertex="1">
          <mxGeometry x="110" y="64.51612903225806" width="160" height="19.35483870967742" as="geometry" />
        </mxCell>
        <mxCell id="eXTrAX-iwCFZ9xLGLV2M-9" value="High Performance" style="rounded=1;fillColor=#F1F2F4;strokeColor=none;html=1;whiteSpace=wrap;fontColor=#596780;align=left;fontSize=12;spacingLeft=10;sketch=0;" parent="eXTrAX-iwCFZ9xLGLV2M-8" vertex="1">
          <mxGeometry x="110" y="110.00258064516129" width="160" height="21.29032258064516" as="geometry" />
        </mxCell>
        <mxCell id="eXTrAX-iwCFZ9xLGLV2M-10" value="" style="shape=triangle;direction=south;fillColor=#596780;strokeColor=none;html=1;sketch=0;" parent="eXTrAX-iwCFZ9xLGLV2M-9" vertex="1">
          <mxGeometry x="1" y="0.5" width="12" height="6" relative="1" as="geometry">
            <mxPoint x="-20" y="-3" as="offset" />
          </mxGeometry>
        </mxCell>
        <mxCell id="eXTrAX-iwCFZ9xLGLV2M-11" value="" style="group" parent="1" vertex="1" connectable="0">
          <mxGeometry x="165" y="360" width="510" height="200" as="geometry" />
        </mxCell>
        <mxCell id="eXTrAX-iwCFZ9xLGLV2M-12" value="&lt;div style=&quot;&quot;&gt;&lt;b style=&quot;background-color: initial;&quot;&gt;&lt;font style=&quot;font-size: 24px;&quot;&gt;Section 2: Assigned Office Details&lt;/font&gt;&lt;/b&gt;&lt;/div&gt;&lt;div style=&quot;&quot;&gt;&lt;font style=&quot;font-size: 36px;&quot;&gt;&lt;b&gt;&lt;br&gt;&lt;/b&gt;&lt;/font&gt;&lt;/div&gt;&lt;div style=&quot;&quot;&gt;&lt;font size=&quot;3&quot;&gt;Office Number&lt;/font&gt;&lt;/div&gt;&lt;div style=&quot;&quot;&gt;&lt;font size=&quot;3&quot;&gt;&lt;br&gt;&lt;/font&gt;&lt;/div&gt;&lt;div style=&quot;&quot;&gt;&lt;font size=&quot;3&quot;&gt;Office Name&lt;/font&gt;&lt;/div&gt;&lt;div style=&quot;&quot;&gt;&lt;font size=&quot;3&quot;&gt;&amp;nbsp;&lt;/font&gt;&lt;/div&gt;" style="shape=document;whiteSpace=wrap;html=1;boundedLbl=1;align=left;" parent="eXTrAX-iwCFZ9xLGLV2M-11" vertex="1">
          <mxGeometry width="510" height="200" as="geometry" />
        </mxCell>
        <mxCell id="eXTrAX-iwCFZ9xLGLV2M-13" value="200" style="rounded=0;whiteSpace=wrap;html=1;" parent="eXTrAX-iwCFZ9xLGLV2M-11" vertex="1">
          <mxGeometry x="110" y="64.51612903225806" width="160" height="19.35483870967742" as="geometry" />
        </mxCell>
        <mxCell id="eXTrAX-iwCFZ9xLGLV2M-14" value="Downtown W Pender" style="rounded=1;fillColor=#F1F2F4;strokeColor=none;html=1;whiteSpace=wrap;fontColor=#596780;align=left;fontSize=12;spacingLeft=10;sketch=0;" parent="eXTrAX-iwCFZ9xLGLV2M-11" vertex="1">
          <mxGeometry x="110" y="110.00258064516129" width="160" height="21.29032258064516" as="geometry" />
        </mxCell>
        <mxCell id="eXTrAX-iwCFZ9xLGLV2M-15" value="" style="shape=triangle;direction=south;fillColor=#596780;strokeColor=none;html=1;sketch=0;" parent="eXTrAX-iwCFZ9xLGLV2M-14" vertex="1">
          <mxGeometry x="1" y="0.5" width="12" height="6" relative="1" as="geometry">
            <mxPoint x="-20" y="-3" as="offset" />
          </mxGeometry>
        </mxCell>
        <mxCell id="eXTrAX-iwCFZ9xLGLV2M-18" value="" style="group" parent="1" vertex="1" connectable="0">
          <mxGeometry x="170" y="580" width="510" height="200" as="geometry" />
        </mxCell>
        <mxCell id="eXTrAX-iwCFZ9xLGLV2M-19" value="&lt;div style=&quot;&quot;&gt;&lt;b style=&quot;background-color: initial;&quot;&gt;&lt;font style=&quot;font-size: 24px;&quot;&gt;Section 3: Device Owner Details&lt;/font&gt;&lt;/b&gt;&lt;/div&gt;&lt;div style=&quot;&quot;&gt;&lt;br&gt;&lt;/div&gt;&lt;div style=&quot;&quot;&gt;&lt;font size=&quot;3&quot;&gt;&amp;nbsp;Assigned To:&amp;nbsp;&lt;/font&gt;&lt;/div&gt;" style="shape=document;whiteSpace=wrap;html=1;boundedLbl=1;align=left;" parent="eXTrAX-iwCFZ9xLGLV2M-18" vertex="1">
          <mxGeometry width="510" height="200" as="geometry" />
        </mxCell>
        <mxCell id="TE2CPjfe3EuvP7b1GMTS-7" value="Adam Hodgins" style="rounded=1;fillColor=#F1F2F4;strokeColor=none;html=1;whiteSpace=wrap;fontColor=#596780;align=left;fontSize=12;spacingLeft=10;sketch=0;" vertex="1" parent="eXTrAX-iwCFZ9xLGLV2M-18">
          <mxGeometry x="110" y="80.00258064516129" width="160" height="21.29032258064516" as="geometry" />
        </mxCell>
        <mxCell id="TE2CPjfe3EuvP7b1GMTS-8" value="" style="shape=triangle;direction=south;fillColor=#596780;strokeColor=none;html=1;sketch=0;" vertex="1" parent="TE2CPjfe3EuvP7b1GMTS-7">
          <mxGeometry x="1" y="0.5" width="12" height="6" relative="1" as="geometry">
            <mxPoint x="-20" y="-3" as="offset" />
          </mxGeometry>
        </mxCell>
        <mxCell id="eXTrAX-iwCFZ9xLGLV2M-24" value="Refresh Device" style="rounded=1;fillColor=#3333FF;strokeColor=none;html=1;whiteSpace=wrap;fontColor=#ffffff;align=center;verticalAlign=middle;fontStyle=0;fontSize=12;sketch=0;" parent="1" vertex="1">
          <mxGeometry x="360" y="790" width="110" height="33" as="geometry" />
        </mxCell>
      </root>
    </mxGraphModel>
  </diagram>
  <diagram id="dZIR67J5Q1Zp7tkAqCdF" name="Device Search Results Clicked">
    <mxGraphModel dx="2074" dy="1196" grid="1" gridSize="10" guides="1" tooltips="1" connect="1" arrows="1" fold="1" page="1" pageScale="1" pageWidth="850" pageHeight="1100" math="0" shadow="0">
      <root>
        <mxCell id="0" />
        <mxCell id="1" parent="0" />
        <mxCell id="k_IqOfbCyqyxOhcttwvS-1" value="" style="rounded=0;whiteSpace=wrap;html=1;" vertex="1" parent="1">
          <mxGeometry x="80" y="20" width="710" height="990" as="geometry" />
        </mxCell>
      </root>
    </mxGraphModel>
  </diagram>
</mxfile>
